<svg width="48" height="48" viewBox="0 0 24 24" fill="white" xmlns="http://www.w3.org/2000/svg" role="img" aria-label="GitHub">
  <path d="M12 .297c-6.63 0-12 5.373-12 12 0 5.303 
  3.438 9.8 8.205 11.385.6.113.82-.258.82-.577 
  0-.285-.01-1.04-.015-2.04-3.338.726-4.042-1.61-4.042-1.61-.546-1.387-1.333-1.757-1.333-1.757-1.089-.745.084-.729.084-.729 
  1.205.084 1.84 1.236 1.84 1.236 1.07 1.835 2.809 
  1.304 3.495.997.108-.776.418-1.305.76-1.605-2.665-.3-5.466-1.332-5.466-5.93 
  0-1.31.467-2.38 1.235-3.22-.123-.303-.535-1.523.117-3.176 
  0 0 1.008-.322 3.301 1.23a11.51 11.51 0 013.003-.404c1.018.005 
  2.042.138 3.003.404 2.291-1.552 3.298-1.23 
  3.298-1.23.653 1.653.241 2.873.118 3.176.77.84 
  1.234 1.91 1.234 3.22 0 4.61-2.804 5.625-5.476 
  5.921.43.372.823 1.102.823 2.222 0 1.606-.014 
  2.896-.014 3.286 0 .319.218.694.825.576C20.565 
  22.092 24 17.592 24 12.297c0-6.627-5.373-12-12-12"></path>
</svg>
